<?xml version="1.0" standalone="no"?>
<!DOCTYPE svg PUBLIC "-//W3C//DTD SVG 1.1//EN" "http://www.w3.org/Graphics/SVG/1.1/DTD/svg11.dtd">
<svg xmlns="http://www.w3.org/2000/svg" xmlns:xlink="http://www.w3.org/1999/xlink" viewBox="0 0 799.32 920.64" width="799.3200073242188" height="920.6400146484375"><defs><style>.cls-1{fill:url(#linear-gradient);}</style><linearGradient id="linear-gradient" x1="30.23" y1="190.13" x2="769.09" y2="730.51" gradientUnits="userSpaceOnUse"><stop offset="0" stop-color="#54b7e7"/><stop offset="1" stop-color="#00ace9"/></linearGradient></defs><g id="Layer_2" data-name="Layer 2"><g id="Designs"><path class="cls-1" d="M628.79,510.55a38.91,38.91,0,0,1,31.07,13.34L797.49,682a7.35,7.35,0,0,1-7,12L584.81,653.88a38.91,38.91,0,0,1-27.08-20.24l-9.09-17.47c-11-21.09-37.52-26.63-57.38-13.56a169.82,169.82,0,0,1-14.88,8.73c-20.78,10.79-28.75,36.28-16.17,56l10.51,16.5a38.93,38.93,0,0,1,4,33.58l-68.1,198.23a7.35,7.35,0,0,1-13.9,0l-68.1-198.23a39,39,0,0,1,4-33.58l10.51-16.5c12.58-19.75,4.61-45.24-16.16-56a170,170,0,0,1-14.89-8.73c-19.86-13.07-46.4-7.53-57.38,13.56l-9.09,17.47a38.91,38.91,0,0,1-27.08,20.24L8.79,694a7.35,7.35,0,0,1-7-12l150-172.25L190,511.4c22.91,1,42.13-17.89,40.47-40.76-.24-3.41-.37-6.85-.37-10.32s.13-6.91.37-10.32c1.66-22.86-17.56-41.76-40.46-40.76l-19.45.85a39,39,0,0,1-31.07-13.34L1.83,238.66a7.35,7.35,0,0,1,7-12l205.72,40.14A38.91,38.91,0,0,1,241.59,287l9.1,17.47c11,21.09,37.51,26.63,57.38,13.57A167.45,167.45,0,0,1,323,309.3c20.78-10.8,28.74-36.29,16.16-56l-10.51-16.5a39,39,0,0,1-4-33.58L392.71,5a7.35,7.35,0,0,1,13.9,0l68.1,198.23a38.93,38.93,0,0,1-4,33.58l-10.51,16.5c-12.58,19.74-4.61,45.23,16.16,56A167.62,167.62,0,0,1,491.26,318c19.86,13.06,46.4,7.52,57.38-13.57L557.73,287a38.91,38.91,0,0,1,27.08-20.24l205.73-40.14a7.35,7.35,0,0,1,7,12L659.86,396.75a39,39,0,0,1-31.07,13.34l-19.44-.85c-22.91-1-42.13,17.9-40.47,40.76.25,3.41.38,6.84.38,10.32s-.13,6.91-.38,10.32c-1.66,22.87,17.57,41.77,40.47,40.76ZM399.66,537A76.68,76.68,0,1,0,323,460.32,76.68,76.68,0,0,0,399.66,537Z"/></g></g></svg>